<svg id="Layer_1" data-name="Layer 1" xmlns="http://www.w3.org/2000/svg" viewBox="0 0 300 300"><defs><style>.cls-1{fill:#1c3664;}.cls-2{fill:none;stroke:#1c3664;stroke-miterlimit:10;stroke-width:5px;}.cls-3{fill:#fff;}.cls-4{fill:#a7a9ac;}</style></defs><title>usgsRicons</title><rect class="cls-1" y="111.45" width="86.26" height="86.26" rx="7.23" ry="7.23" transform="translate(-111.45 197.71) rotate(-90)"/><rect class="cls-1" x="213.74" y="111.51" width="86.26" height="86.26" rx="7.23" ry="7.23" transform="translate(102.23 411.51) rotate(-90)"/><rect class="cls-1" x="108.06" y="111.51" width="86.26" height="86.26" rx="7.23" ry="7.23" transform="translate(-3.45 305.82) rotate(-90)"/><line class="cls-2" x1="85.63" y1="156.51" x2="214.78" y2="156.51"/><path class="cls-3" d="M256.87,129.7c-16.36,0-29.63,9-29.63,20s13.27,20,29.63,20,29.63-9,29.63-20S273.23,129.7,256.87,129.7Zm5.44,34.79c-12.59,0-22.8-6.07-22.8-13.56s10.21-13.56,22.8-13.56,22.8,6.07,22.8,13.56S274.9,164.48,262.31,164.48Z"/><path class="cls-4" d="M261.1,137.41c-.4,0-.8,0-1.21,0-12.59,0-22.8,6.07-22.8,13.56s10.21,13.56,22.8,13.56c.41,0,.81,0,1.21,0-12-.38-21.58-6.28-21.58-13.52S249.08,137.78,261.1,137.41Z"/><path class="cls-4" d="M256.87,129.7c-.41,0-.81,0-1.21,0C269.6,130.12,281,137,283.55,146a8.91,8.91,0,0,1,1.56,4.9c0,2.94-1.59,5.66-4.27,7.88-4.72,6.27-14.17,10.62-25.18,10.92.41,0,.8,0,1.21,0,16.36,0,29.63-9,29.63-20S273.23,129.7,256.87,129.7Z"/><path class="cls-3" d="M285.58,179.58h-11.9l-10.83-14.25h-3.5v14.25h-9.71V140.71h15.63a34.4,34.4,0,0,1,5.64.4,12,12,0,0,1,4.44,1.68,10.17,10.17,0,0,1,3.31,3.38,10,10,0,0,1,1.23,5.21,12.08,12.08,0,0,1-2,7.24,14.15,14.15,0,0,1-5.38,4.42Zm-15.71-27a5.3,5.3,0,0,0-.56-2.52,3.7,3.7,0,0,0-1.87-1.63,6.72,6.72,0,0,0-2-.5q-1.12-.1-2.79-.1h-3.26v10.47h2.79a20.46,20.46,0,0,0,3.46-.25A5.14,5.14,0,0,0,268,157a4.57,4.57,0,0,0,1.4-1.75A6.57,6.57,0,0,0,269.87,152.62Z"/><path class="cls-3" d="M186.94,160.89A11,11,0,0,0,174.53,150a14.06,14.06,0,0,0-20-8.82,17.23,17.23,0,0,0-26,5.36,9.68,9.68,0,0,0-6.72,6.69,9.66,9.66,0,0,0,3.57,18.63h51.21v0A11,11,0,0,0,186.94,160.89Z"/><path class="cls-3" d="M39.89,144.79v13.86c0,2.92-1.65,6-6.63,6-4.49,0-6.66-2.33-6.66-6V144.79h4.09v13.59c0,2.41,1,3.36,2.52,3.36,1.79,0,2.6-1.19,2.6-3.36V144.79Z"/><path class="cls-3" d="M46.54,164.66c-5.06,0-6-3-5.79-6.36h4.09c0,1.87.08,3.44,2.33,3.44a2,2,0,0,0,2.06-2.22C49.22,156,41,155.78,41,150c0-3.06,1.46-5.5,6.44-5.5,4,0,6,1.79,5.69,5.88h-4c0-1.46-.24-3-1.9-3a1.91,1.91,0,0,0-2.11,2.09c0,3.71,8.23,3.38,8.23,9.53C53.36,164.06,49.65,164.66,46.54,164.66Z"/><path class="cls-3" d="M74,164.66c-5.07,0-6-3-5.8-6.36h4.09c0,1.87.08,3.44,2.33,3.44a2,2,0,0,0,2.06-2.22c0-3.52-8.23-3.74-8.23-9.56,0-3.06,1.46-5.5,6.45-5.5,4,0,6,1.79,5.69,5.88h-4c0-1.46-.24-3-1.9-3a1.91,1.91,0,0,0-2.11,2.09c0,3.71,8.23,3.38,8.23,9.53C80.86,164.06,77.14,164.66,74,164.66Z"/><path class="cls-3" d="M61,157h2.41v4.32l-.2.07a6.5,6.5,0,0,1-2,.38c-2.33,0-2.92-1.08-2.92-7.2,0-3.79,0-7.23,2.55-7.23,2,0,2.4,1.34,2.44,3h4.07c0-3.79-2.41-5.88-6.26-5.88-6.69,0-6.93,5-6.93,9.94,0,7.42.8,10.3,7.68,10.3A25.82,25.82,0,0,0,67.1,164c.07,0,.19-.1.19-.2V154.1H61Z"/><path class="cls-3" d="M9.53,151.33l.07.07a4.43,4.43,0,0,0,5.56.4l8-5.33v-1.68H4.26v4.45C5.42,149,7.27,149.23,9.53,151.33Z"/><path class="cls-3" d="M16.65,158.74l-2.23-2.15c-.32-.28-.58-.49-.64-.54a4.53,4.53,0,0,0-4.26-.62,3.89,3.89,0,0,0-.59.3l-4.66,3.12v5.65H23.18v-4.07C22.76,160.71,20.2,162.1,16.65,158.74Z"/><path class="cls-3" d="M9.36,151.84l-.31-.28a4.57,4.57,0,0,0-4.79-.67v1.94l1.09-.74a4.23,4.23,0,0,1,4.31,0Z"/><path class="cls-3" d="M12,154.35l-.3-.27a4.59,4.59,0,0,0-4.69-1,4,4,0,0,0-.59.31l-.22.15h0l-1.92,1.28v2l3.57-2.4a4.21,4.21,0,0,1,4.27,0Z"/><path class="cls-3" d="M23.18,156.45l-1.8,1.21a4.35,4.35,0,0,1-4.82.33l.3.29c.11.1.25.22.41.34a4.45,4.45,0,0,0,5.34.2l.57-.38Z"/><path class="cls-3" d="M23.18,152.43l-4.25,2.86a4.35,4.35,0,0,1-4.79.37l.29.28.1.09h0a4.52,4.52,0,0,0,5.63.42l3-2Z"/><path class="cls-3" d="M23.18,148.44l-6.69,4.48a4.36,4.36,0,0,1-4.78.41l.3.29a5.84,5.84,0,0,0,.68.54,4.4,4.4,0,0,0,5-.07l5.46-3.63Z"/><path class="cls-1" d="M103.72,156.45,94.33,151a.56.56,0,0,0-.84.49v10.85a.56.56,0,0,0,.84.49l9.39-5.42A.56.56,0,0,0,103.72,156.45Z"/><path class="cls-1" d="M210.9,156.45,201.51,151a.56.56,0,0,0-.84.49v10.85a.56.56,0,0,0,.84.49l9.39-5.42A.56.56,0,0,0,210.9,156.45Z"/></svg>