<svg id="Layer_1" data-name="Layer 1" xmlns="http://www.w3.org/2000/svg" viewBox="0 0 300 300"><defs><style>.cls-1{fill:#1c3664;}.cls-2{fill:#fff;}.cls-3{fill:none;stroke:#fff;stroke-miterlimit:10;stroke-width:5px;}</style></defs><title>usgsRicons</title><path class="cls-1" d="M150,0A150,150,0,1,0,300,150,150,150,0,0,0,150,0ZM282.12,146.36H248.36V105.52h26.13A131.76,131.76,0,0,1,282.12,146.36Zm-41,0H200.93V105.52h40.15Zm-87.9,0V105.52h40.47v40.84Zm40.47,7.28v40.47H153.18V153.64Zm-40.47-55.4V58.14h40.47v40.1Zm-7.28,0H105.63V58.14H145.9Zm0,7.28v40.84H105.63V105.52Zm0,48.12v40.47H105.63V153.64ZM98.35,194.11H57.67V153.64H98.35Zm0,7.28v40.47H57.67V201.39Zm7.28,0H145.9v40.47H105.63Zm47.55,0h40.47v40.47H153.18Zm47.75,0h40.15v40.47H200.93Zm0-7.28V153.64h40.15v40.47Zm0-95.87V58.14h40.15v40.1Zm0-47.38V28A132.21,132.21,0,0,1,237.4,50.86Zm-7.28,0H153.18v-33a131.8,131.8,0,0,1,40.47,7.35Zm-47.75,0H105.63V25.47A131.74,131.74,0,0,1,145.9,17.9Zm-47.55,0H62.6A132.23,132.23,0,0,1,98.35,28.3Zm0,7.28v40.1H57.67V58.14Zm0,47.38v40.84H57.67V105.52Zm-48,40.84H17.88a131.76,131.76,0,0,1,7.63-40.84H50.39Zm0,7.28v40.47h-25a131.76,131.76,0,0,1-7.5-40.47Zm0,47.75v35.48a132.21,132.21,0,0,1-22.19-35.48Zm48,47.75V271.7A132.23,132.23,0,0,1,62.6,249.14Zm7.28,0H145.9v33a131.74,131.74,0,0,1-40.27-7.57Zm47.55,0h40.47v25.64a131.8,131.8,0,0,1-40.47,7.35Zm47.75,0H237.4A132.21,132.21,0,0,1,200.93,272Zm47.43-47.75h23.45a132.25,132.25,0,0,1-23.45,36.89Zm0-7.28V153.64h33.76a131.76,131.76,0,0,1-7.5,40.47Zm23.29-95.87H248.36V61.72A132.25,132.25,0,0,1,271.65,98.24ZM50.39,63.13V98.24h-22A132.22,132.22,0,0,1,50.39,63.13Z"/><rect class="cls-1" x="102.91" y="102.55" width="94.62" height="94.62"/><circle class="cls-2" cx="118.82" cy="170.34" r="8.39"/><circle class="cls-2" cx="139.13" cy="138.05" r="8.39"/><circle class="cls-2" cx="163.05" cy="168.22" r="8.39"/><circle class="cls-2" cx="181.18" cy="129.66" r="8.39"/><polyline class="cls-3" points="118.82 170.34 139.13 138.05 163.05 168.22 181.18 129.66"/></svg>