<svg id="Layer_1" data-name="Layer 1" xmlns="http://www.w3.org/2000/svg" viewBox="0 0 300 300"><defs><style>.cls-1{fill:#1c3664;}.cls-2{fill:#fff;}.cls-3{fill:none;stroke:#fff;stroke-miterlimit:10;stroke-width:5px;}</style></defs><title>sbtools</title><path class="cls-1" d="M300.41,170.17a46.17,46.17,0,0,0-52.26-45.83,59.18,59.18,0,0,0-84.39-37.14A72.55,72.55,0,0,0,54.34,109.76,40.74,40.74,0,0,0,26,137.94,40.67,40.67,0,0,0,41.08,216.4h76.55l.78,0,.78,0H256.69v-.07A46.23,46.23,0,0,0,300.41,170.17Z"/><circle class="cls-2" cx="104.91" cy="174.86" r="8.43"/><circle class="cls-2" cx="136.23" cy="159.29" r="8.43"/><circle class="cls-2" cx="156.69" cy="139.48" r="8.43"/><circle class="cls-2" cx="195.9" cy="154.43" r="8.43"/><polyline class="cls-3" points="104.91 174.86 136.23 159.28 156.69 139.48 195.9 154.43"/></svg>