<svg id="Layer_1" data-name="Layer 1" xmlns="http://www.w3.org/2000/svg" viewBox="0 0 300 300"><defs><style>.cls-1{fill:#1c3664;}.cls-2{fill:none;stroke:#1c3664;stroke-miterlimit:10;stroke-width:5px;}.cls-3{fill:#fff;}</style></defs><title>usgsRicons</title><rect class="cls-1" x="113.25" width="73" height="73" rx="7.23" ry="7.23"/><path class="cls-2" d="M149.75,34.68h-52a20,20,0,0,0-20,20v74.34a20,20,0,0,0,20,20h52"/><path class="cls-2" d="M149.75,263.53h52a20,20,0,0,0,20-20V169.15a20,20,0,0,0-20-20h-52"/><rect class="cls-1" x="113.25" y="227" width="73" height="73" rx="7.23" ry="7.23"/><rect class="cls-1" x="113.25" y="113.5" width="73" height="73" rx="7.23" ry="7.23"/><path class="cls-3" d="M136.84,260.21l7.37,7.22a1.23,1.23,0,0,0,1.73,0l16.46-16a1.23,1.23,0,0,1,1.71,0l4.32,4.11a1.23,1.23,0,0,1,0,1.76l-22.31,22.39a1.23,1.23,0,0,1-1.75,0l-13.32-13.4a1.23,1.23,0,0,1,0-1.72l4-4.3A1.23,1.23,0,0,1,136.84,260.21Z"/><circle class="cls-3" cx="129" cy="34.68" r="4.18"/><circle class="cls-3" cx="149.75" cy="34.68" r="4.18"/><circle class="cls-3" cx="170.5" cy="34.68" r="4.18"/><circle class="cls-3" cx="129" cy="149.11" r="4.18"/><circle class="cls-3" cx="149.75" cy="149.11" r="4.18"/><circle class="cls-3" cx="170.5" cy="149.11" r="4.18"/></svg>